<svg xmlns="http://www.w3.org/2000/svg" width="130" height="130" viewBox="0 0 130 130" version="1.1"><path d="M 50 6.828 C 34.103 11.329, 20.791 21.457, 13.955 34.250 C 12.265 37.412, 11.127 40, 11.425 40 C 11.723 40, 13.160 37.637, 14.618 34.750 C 19.828 24.437, 33.809 13.091, 46.293 9.046 C 51.398 7.391, 76.074 7.347, 83.044 8.980 C 90.959 10.834, 100.611 16.563, 107.459 23.471 C 112.103 28.155, 112.707 28.563, 110.171 25.297 C 104.559 18.072, 95.123 11.702, 84.420 7.914 C 75.851 4.881, 58.779 4.343, 50 6.828 M 50.104 21.672 C 46.773 28.982, 22 93.038, 22 94.340 C 22 95.439, 22.875 95.754, 25.250 95.509 C 27.038 95.324, 29.223 95.134, 30.107 95.087 C 31.830 94.994, 32.294 93.898, 48.348 52 L 57.736 27.500 61.760 27.198 C 64.175 27.016, 66.490 26.116, 67.547 24.948 C 69.851 22.402, 74.605 22.394, 75.965 24.934 C 77.417 27.647, 77.255 29.602, 75.429 31.429 C 73.288 33.569, 70.402 33.402, 68 31 C 66.798 29.798, 64.667 29, 62.658 29 C 59.455 29, 59.207 29.282, 56.716 35.750 C 55.286 39.462, 52.065 47.802, 49.558 54.282 C 47.051 60.762, 45 66.724, 45 67.532 C 45 68.767, 47.790 69, 62.592 69 C 78.670 69, 80.403 68.828, 82.727 67 C 86.131 64.322, 88.613 64.480, 90.592 67.500 C 92.109 69.816, 92.109 70.184, 90.592 72.500 C 88.594 75.550, 85 75.762, 82.481 72.979 C 80.751 71.067, 79.632 70.973, 61.737 71.229 L 42.822 71.500 38.396 82.820 C 35.961 89.046, 34.158 94.446, 34.388 94.820 C 34.716 95.351, 42.304 95.514, 46.142 95.074 C 46.494 95.033, 47.084 93.763, 47.452 92.250 C 47.820 90.737, 49.058 86.900, 50.205 83.722 L 52.288 77.944 65.394 78.222 L 78.500 78.500 81.280 86.447 C 82.810 90.818, 84.202 94.535, 84.374 94.708 C 84.996 95.329, 109.001 95.484, 109.001 94.867 C 109 94.219, 99.671 69.881, 89.503 44 C 86.370 36.025, 82.918 27.138, 81.831 24.250 C 80.745 21.363, 79.482 19, 79.025 19 C 78.567 19, 79.704 22.712, 81.550 27.250 C 85.150 36.099, 95.278 61.824, 103.006 81.750 L 107.757 94 96.492 94 L 85.227 94 82.363 85.750 L 79.500 77.500 66.080 77.220 C 57.807 77.047, 52.265 77.335, 51.628 77.972 C 51.061 78.539, 49.418 82.265, 47.979 86.252 L 45.361 93.500 40.230 93.801 L 35.099 94.101 37.590 87.801 C 38.961 84.335, 40.504 80.600, 41.020 79.500 C 41.536 78.400, 42.407 76.263, 42.955 74.750 L 43.950 72 61.975 72 C 78.667 72, 80.148 72.148, 82 74 C 83.100 75.100, 85.125 76, 86.500 76 C 89.503 76, 93 72.772, 93 70 C 93 67.225, 89.501 64, 86.490 64 C 85.110 64, 83.210 64.900, 82.268 66 C 80.678 67.857, 79.318 68, 63.278 68 C 53.775 68, 46 67.765, 46 67.478 C 46 66.968, 49.510 57.730, 56.726 39.250 C 59.900 31.121, 60.631 30, 62.761 30 C 64.094 30, 66.329 30.900, 67.727 32 C 69.126 33.100, 71.109 34, 72.135 34 C 74.732 34, 78 30.465, 78 27.655 C 78 22.560, 71.007 20.125, 67.500 24 C 66.228 25.405, 64.420 26, 61.418 26 L 57.145 26 54.155 33.754 C 52.511 38.018, 48.586 48.255, 45.434 56.504 C 42.282 64.752, 37.809 76.450, 35.494 82.500 L 31.285 93.500 27.011 93.814 C 23.796 94.050, 22.866 93.802, 23.258 92.814 C 33.089 68.003, 49.437 26.603, 50.431 24 C 51.724 20.611, 51.968 20.482, 58.133 19.923 L 64.500 19.345 57.911 19.173 C 51.666 19.009, 51.257 19.140, 50.104 21.672 M 70.250 25.662 C 68.450 26.389, 68.711 29.675, 70.627 30.410 C 72.458 31.113, 75 29.413, 75 27.485 C 75 26.491, 72.502 24.688, 71.668 25.079 C 71.576 25.122, 70.938 25.385, 70.250 25.662 M 70.459 27.067 C 69.539 28.556, 70.606 29.365, 72.520 28.631 C 73.404 28.292, 73.847 27.561, 73.504 27.007 C 72.694 25.696, 71.289 25.723, 70.459 27.067 M 115.788 34.395 C 117.280 36.812, 118.678 38.621, 118.896 38.415 C 119.338 37.998, 114.231 30, 113.524 30 C 113.278 30, 114.297 31.978, 115.788 34.395 M 64.628 38.793 C 63.634 40.401, 57 60.338, 57 61.717 C 57 62.660, 59.248 63, 65.500 63 C 71.397 63, 74 62.636, 74 61.812 C 74 60.223, 66.874 39.727, 65.951 38.663 C 65.552 38.202, 64.957 38.261, 64.628 38.793 M 61.992 49.582 C 60.185 55.037, 58.499 60.063, 58.246 60.750 C 57.904 61.681, 59.729 62, 65.393 62 C 69.577 62, 72.996 61.888, 72.991 61.750 C 72.986 61.612, 71.248 56.587, 69.129 50.582 L 65.277 39.664 61.992 49.582 M 119.035 40.135 C 119.016 40.485, 119.657 42.285, 120.461 44.135 C 121.264 45.986, 121.923 46.825, 121.925 46 C 121.929 44.559, 119.108 38.834, 119.035 40.135 M 8.536 46.525 C 7.629 49.645, 7.076 53.165, 7.307 54.349 C 7.680 56.256, 7.744 56.217, 7.875 54 C 7.955 52.625, 8.693 49.288, 9.513 46.585 C 10.333 43.882, 10.819 41.486, 10.594 41.261 C 10.369 41.036, 9.443 43.404, 8.536 46.525 M 122.850 59.893 C 123.262 73.728, 121.715 81.242, 116.555 90.466 C 113.243 96.387, 105.389 105.273, 99.485 109.778 C 96.954 111.710, 96.880 111.877, 99 110.878 C 103.287 108.856, 114.351 96.771, 117.661 90.494 C 122.542 81.239, 124.143 74.364, 124.125 62.736 C 124.117 57.090, 123.747 51.491, 123.305 50.294 C 122.851 49.067, 122.653 53.251, 122.850 59.893 M 84.082 68.847 C 82.287 72.200, 86.523 74.485, 89 71.500 C 89.993 70.303, 89.993 69.697, 89 68.500 C 87.314 66.468, 85.278 66.612, 84.082 68.847 M 85.639 68.694 C 84.444 69.889, 84.994 72, 86.500 72 C 87.325 72, 88 71.352, 88 70.559 C 88 68.888, 86.573 67.761, 85.639 68.694 M 7.195 72.500 C 7.215 74.150, 7.439 74.704, 7.693 73.731 C 7.947 72.758, 7.930 71.408, 7.656 70.731 C 7.382 70.054, 7.175 70.850, 7.195 72.500 M 8.079 77.583 C 8.127 78.748, 8.364 78.985, 8.683 78.188 C 8.972 77.466, 8.936 76.603, 8.604 76.271 C 8.272 75.939, 8.036 76.529, 8.079 77.583 M 9.446 82.500 C 10.647 87.705, 18.779 99.580, 25.236 105.558 C 36.692 116.164, 52.823 121.718, 69 120.624 C 77.077 120.078, 88.757 117.423, 87.706 116.373 C 87.436 116.103, 84.642 116.630, 81.497 117.544 C 78.240 118.491, 74.429 118.947, 72.640 118.604 C 70.390 118.173, 69.925 118.282, 71 118.986 C 72.088 119.699, 71.126 119.968, 67.500 119.965 C 42.717 119.943, 23.508 108.579, 12.895 87.662 C 10.617 83.173, 9.065 80.850, 9.446 82.500 M 92 114 C 90.075 115.054, 88.860 115.935, 89.300 115.958 C 90.359 116.014, 96 113.081, 96 112.474 C 96 111.820, 95.941 111.842, 92 114" stroke="none" fill="#606090" fill-rule="evenodd"/><path d="M 47.826 8.723 C 30.639 13.124, 14.632 28.993, 9.471 46.747 C 5.431 60.644, 6.721 75.216, 13.125 88.009 C 23.375 108.490, 42.864 119.943, 67.500 119.965 C 71.126 119.968, 72.088 119.699, 71 118.986 C 69.922 118.279, 70.371 118.170, 72.598 118.596 C 76.085 119.264, 86.405 116.724, 92.500 113.697 C 105.894 107.047, 117.784 92.605, 121.449 78.535 C 123.938 68.977, 123.505 53.051, 120.526 44.607 C 114.420 27.303, 99.137 12.749, 83.138 9.002 C 76.055 7.344, 53.897 7.169, 47.826 8.723 M 63.397 18.780 C 51.398 19.057, 51.284 19.082, 50.090 21.701 C 46.769 28.990, 22 93.041, 22 94.340 C 22 95.439, 22.875 95.754, 25.250 95.509 C 27.038 95.324, 29.223 95.134, 30.107 95.087 C 31.830 94.994, 32.294 93.898, 48.348 52 L 57.736 27.500 61.760 27.198 C 64.175 27.016, 66.490 26.116, 67.547 24.948 C 69.851 22.402, 74.605 22.394, 75.965 24.934 C 77.417 27.647, 77.255 29.602, 75.429 31.429 C 73.288 33.569, 70.402 33.402, 68 31 C 66.798 29.798, 64.667 29, 62.658 29 C 59.455 29, 59.207 29.282, 56.716 35.750 C 55.286 39.462, 52.065 47.802, 49.558 54.282 C 47.051 60.762, 45 66.724, 45 67.532 C 45 68.767, 47.790 69, 62.592 69 C 78.670 69, 80.403 68.828, 82.727 67 C 86.131 64.322, 88.613 64.480, 90.592 67.500 C 92.109 69.816, 92.109 70.184, 90.592 72.500 C 88.594 75.550, 85 75.762, 82.481 72.979 C 80.751 71.067, 79.632 70.973, 61.737 71.229 L 42.822 71.500 38.396 82.820 C 35.961 89.046, 34.158 94.446, 34.388 94.820 C 34.716 95.351, 42.304 95.514, 46.142 95.074 C 46.494 95.033, 47.084 93.763, 47.452 92.250 C 47.820 90.737, 49.058 86.900, 50.205 83.722 L 52.288 77.944 65.394 78.222 L 78.500 78.500 81.280 86.447 C 82.810 90.818, 84.202 94.535, 84.374 94.708 C 84.996 95.329, 109.001 95.484, 109.001 94.867 C 109 94.219, 99.671 69.881, 89.503 44 C 86.370 36.025, 82.936 27.187, 81.873 24.361 C 79.586 18.283, 79.963 18.397, 63.397 18.780 M 70.250 25.662 C 68.450 26.389, 68.711 29.675, 70.627 30.410 C 72.458 31.113, 75 29.413, 75 27.485 C 75 26.491, 72.502 24.688, 71.668 25.079 C 71.576 25.122, 70.938 25.385, 70.250 25.662 M 61.992 49.582 C 60.185 55.037, 58.499 60.063, 58.246 60.750 C 57.904 61.681, 59.729 62, 65.393 62 C 69.577 62, 72.996 61.888, 72.991 61.750 C 72.986 61.612, 71.248 56.587, 69.129 50.582 L 65.277 39.664 61.992 49.582 M 84.082 68.847 C 82.287 72.200, 86.523 74.485, 89 71.500 C 89.993 70.303, 89.993 69.697, 89 68.500 C 87.314 66.468, 85.278 66.612, 84.082 68.847" stroke="none" fill="#2e318b" fill-rule="evenodd"/></svg>